<svg width="64" height="60" viewBox="0 0 64 60" fill="none" xmlns="http://www.w3.org/2000/svg">
<path d="M31.6864 44.7458V31.8395M31.6864 31.8395C33.0224 31.8405 34.3531 31.6844 35.647 31.3749M31.6864 31.8395C30.3504 31.8405 29.0197 31.6844 27.7258 31.3749M37.6274 49.7583C33.7018 50.4524 29.671 50.4524 25.7454 49.7583M35.647 55.6165C33.0138 55.8732 30.359 55.8732 27.7258 55.6165M37.6274 44.7458V44.2738C37.6274 41.8572 39.3648 39.7922 41.6091 38.5803C45.3797 36.5473 48.3249 33.4134 49.9883 29.664C51.6518 25.9146 51.9407 21.7591 50.8102 17.8414C49.6797 13.9236 47.193 10.4624 43.7354 7.99388C40.2778 5.52539 36.0422 4.1875 31.6851 4.1875C27.3279 4.1875 23.0924 5.52539 19.6348 7.99388C16.1771 10.4624 13.6904 13.9236 12.56 17.8414C11.4295 21.7591 11.7184 25.9146 13.3818 29.664C15.0453 33.4134 17.9905 36.5473 21.761 38.5803C24.0054 39.7922 25.7454 41.8572 25.7454 44.2738V44.7458" stroke="#002BFF" stroke-width="4.37037" stroke-linecap="round" stroke-linejoin="round"/>
<path d="M30.0433 12.8037C31.156 12.5717 32.3048 12.5709 33.4175 12.8012C33.4915 13.2873 33.6748 13.7504 33.9538 14.1563C34.2328 14.5622 34.6004 14.9003 35.0292 15.1456C35.4576 15.3917 35.9364 15.5386 36.4301 15.5755C36.9237 15.6124 37.4195 15.5383 37.8804 15.3587C38.6375 16.2008 39.2109 17.1894 39.5644 18.2625C39.1777 18.5695 38.8656 18.959 38.6513 19.4022C38.4369 19.8453 38.3258 20.3307 38.3262 20.8222C38.3258 21.8577 38.8088 22.7809 39.5641 23.3812C39.2077 24.4536 38.6329 25.4418 37.8755 26.2843C37.4147 26.105 36.9192 26.0312 36.4257 26.0683C35.9322 26.1055 35.4534 26.2526 35.0248 26.4988C34.5962 26.7442 34.2287 27.0823 33.9495 27.488C33.6704 27.8937 33.4867 28.3565 33.4123 28.8422C32.2997 29.0748 31.1509 29.0762 30.038 28.8463C29.9644 28.3599 29.7813 27.8962 29.5022 27.4899C29.2232 27.0836 28.8555 26.7451 28.4264 26.4996C27.9979 26.2536 27.519 26.1068 27.0254 26.07C26.5317 26.0333 26.036 26.1075 25.5751 26.2873C24.8179 25.445 24.2446 24.456 23.8911 23.3826C24.2776 23.0758 24.5896 22.6865 24.8039 22.2437C25.0183 21.8009 25.1295 21.3158 25.1293 20.8246C25.1299 20.3329 25.0189 19.8475 24.8046 19.4045C24.5903 18.9614 24.2782 18.5721 23.8914 18.2655C24.2479 17.1931 24.8227 16.205 25.5801 15.3625C26.0408 15.5418 26.5363 15.6156 27.0298 15.5784C27.5234 15.5413 28.0022 15.3942 28.4307 15.148C28.8593 14.9026 29.2268 14.5645 29.506 14.1588C29.7852 13.7531 29.9688 13.2902 30.0433 12.8045L30.0433 12.8037ZM31.7268 23.2816C32.3831 23.2814 33.0126 23.0223 33.4768 22.5613C33.941 22.1002 34.2019 21.475 34.2022 20.8232C34.2024 20.1714 33.942 19.5463 33.4781 19.0855C33.0142 18.6247 32.385 18.3659 31.7287 18.366C31.0724 18.3662 30.443 18.6253 29.9787 19.0863C29.5145 19.5474 29.2536 20.1726 29.2533 20.8244C29.2531 21.4762 29.5136 22.1013 29.9774 22.5621C30.4413 23.0229 31.0706 23.2817 31.7268 23.2816V23.2816Z" fill="#002BFF"/>
</svg>
